<mxfile host="app.diagrams.net" modified="2021-12-20T00:17:24.850Z" agent="5.0 (Macintosh; Intel Mac OS X 10_15_7) AppleWebKit/537.36 (KHTML, like Gecko) Chrome/96.0.4664.110 Safari/537.36" etag="7FPVccQDOkZLDzMG-gDI" version="16.0.0" type="github">
  <diagram id="2f404044-711c-603c-8f00-f6bb4c023d3c" name="Page-1">
    <mxGraphModel dx="1298" dy="811" grid="1" gridSize="10" guides="1" tooltips="1" connect="1" arrows="1" fold="1" page="1" pageScale="1" pageWidth="4681" pageHeight="3300" background="none" math="0" shadow="0">
      <root>
        <mxCell id="0" />
        <mxCell id="1" parent="0" />
        <mxCell id="QaOnGby33gd0xWd2W6pQ-62" value="&lt;font style=&quot;font-size: 18px&quot;&gt;Design Portal&lt;/font&gt;" style="text;html=1;resizable=0;autosize=1;align=center;verticalAlign=middle;points=[];fillColor=none;strokeColor=none;rounded=0;" vertex="1" parent="1">
          <mxGeometry x="35" y="30" width="120" height="20" as="geometry" />
        </mxCell>
        <mxCell id="QaOnGby33gd0xWd2W6pQ-63" value="Req:" style="text;html=1;align=center;verticalAlign=middle;resizable=0;points=[];autosize=1;strokeColor=none;fillColor=none;fontSize=18;" vertex="1" parent="1">
          <mxGeometry x="115" y="65" width="50" height="30" as="geometry" />
        </mxCell>
        <mxCell id="QaOnGby33gd0xWd2W6pQ-64" value="600 concurrent users" style="text;html=1;align=center;verticalAlign=middle;resizable=0;points=[];autosize=1;strokeColor=none;fillColor=none;fontSize=18;" vertex="1" parent="1">
          <mxGeometry x="130" y="100" width="180" height="30" as="geometry" />
        </mxCell>
        <mxCell id="QaOnGby33gd0xWd2W6pQ-65" value="PII data" style="text;html=1;align=center;verticalAlign=middle;resizable=0;points=[];autosize=1;strokeColor=none;fillColor=none;fontSize=18;" vertex="1" parent="1">
          <mxGeometry x="130" y="135" width="80" height="30" as="geometry" />
        </mxCell>
        <mxCell id="QaOnGby33gd0xWd2W6pQ-67" value="&lt;p class=&quot;MsoNormal&quot; style=&quot;margin: 0in ; font-size: 12pt ; font-family: &amp;#34;calibri&amp;#34; , sans-serif&quot;&gt;Functional Req:&lt;/p&gt;&lt;p class=&quot;MsoListParagraphCxSpFirst&quot; style=&quot;margin: 0in 0in 0in 0.5in ; font-size: 12pt ; font-family: &amp;#34;calibri&amp;#34; , sans-serif ; text-indent: -0.25in&quot;&gt;1.&lt;span style=&quot;font-stretch: normal ; font-size: 7pt ; line-height: normal ; font-family: &amp;#34;times new roman&amp;#34;&quot;&gt;&amp;nbsp;&amp;nbsp;&amp;nbsp;&amp;nbsp; &lt;/span&gt;Portal user logs in&lt;/p&gt;&lt;p class=&quot;MsoListParagraphCxSpMiddle&quot; style=&quot;margin: 0in 0in 0in 0.5in ; font-size: 12pt ; font-family: &amp;#34;calibri&amp;#34; , sans-serif ; text-indent: -0.25in&quot;&gt;2.&lt;span style=&quot;font-stretch: normal ; font-size: 7pt ; line-height: normal ; font-family: &amp;#34;times new roman&amp;#34;&quot;&gt;&amp;nbsp;&amp;nbsp;&amp;nbsp;&amp;nbsp; &lt;/span&gt;Admin configuration: Org configuration with 3000 orgs in 2 years&lt;/p&gt;&lt;p class=&quot;MsoListParagraphCxSpMiddle&quot; style=&quot;margin: 0in 0in 0in 0.5in ; font-size: 12pt ; font-family: &amp;#34;calibri&amp;#34; , sans-serif ; text-indent: -0.25in&quot;&gt;3.&lt;span style=&quot;font-stretch: normal ; font-size: 7pt ; line-height: normal ; font-family: &amp;#34;times new roman&amp;#34;&quot;&gt;&amp;nbsp;&amp;nbsp;&amp;nbsp;&amp;nbsp; &lt;/span&gt;Roles and permissions&lt;/p&gt;&lt;p class=&quot;MsoListParagraphCxSpMiddle&quot; style=&quot;margin: 0in 0in 0in 0.5in ; font-size: 12pt ; font-family: &amp;#34;calibri&amp;#34; , sans-serif ; text-indent: -0.25in&quot;&gt;4.&lt;span style=&quot;font-stretch: normal ; font-size: 7pt ; line-height: normal ; font-family: &amp;#34;times new roman&amp;#34;&quot;&gt;&amp;nbsp;&amp;nbsp;&amp;nbsp;&amp;nbsp; &lt;/span&gt;Reports&lt;/p&gt;&lt;p class=&quot;MsoListParagraphCxSpLast&quot; style=&quot;margin: 0in 0in 0in 0.5in ; font-size: 12pt ; font-family: &amp;#34;calibri&amp;#34; , sans-serif ; text-indent: -0.25in&quot;&gt;5.&lt;span style=&quot;font-stretch: normal ; font-size: 7pt ; line-height: normal ; font-family: &amp;#34;times new roman&amp;#34;&quot;&gt;&amp;nbsp;&amp;nbsp;&amp;nbsp;&amp;nbsp; &lt;/span&gt;500 concurrent users&lt;/p&gt;&lt;p class=&quot;MsoNormal&quot; style=&quot;margin: 0in ; font-size: 12pt ; font-family: &amp;#34;calibri&amp;#34; , sans-serif&quot;&gt;Non-Functional Req:&lt;/p&gt;&lt;p class=&quot;MsoListParagraphCxSpFirst&quot; style=&quot;margin: 0in 0in 0in 0.5in ; font-size: 12pt ; font-family: &amp;#34;calibri&amp;#34; , sans-serif ; text-indent: -0.25in&quot;&gt;1.&lt;span style=&quot;font-stretch: normal ; font-size: 7pt ; line-height: normal ; font-family: &amp;#34;times new roman&amp;#34;&quot;&gt;&amp;nbsp;&amp;nbsp;&amp;nbsp;&amp;nbsp; &lt;/span&gt;Security: Authentication, authorization and PII data handling&lt;/p&gt;&lt;p class=&quot;MsoListParagraphCxSpLast&quot; style=&quot;margin: 0in 0in 0in 0.5in ; font-size: 12pt ; font-family: &amp;#34;calibri&amp;#34; , sans-serif ; text-indent: -0.25in&quot;&gt;2.&lt;span style=&quot;font-stretch: normal ; font-size: 7pt ; line-height: normal ; font-family: &amp;#34;times new roman&amp;#34;&quot;&gt;&amp;nbsp;&amp;nbsp;&amp;nbsp;&amp;nbsp; &lt;/span&gt;Monitoring and alerts&lt;/p&gt;" style="text;html=1;align=left;verticalAlign=middle;resizable=0;points=[];autosize=1;strokeColor=none;fillColor=none;fontSize=18;" vertex="1" parent="1">
          <mxGeometry x="330" y="40" width="520" height="200" as="geometry" />
        </mxCell>
        <mxCell id="QaOnGby33gd0xWd2W6pQ-72" value="" style="swimlane;startSize=0;fontSize=18;" vertex="1" parent="1">
          <mxGeometry x="370" y="300" width="520" height="340" as="geometry">
            <mxRectangle x="390" y="360" width="50" height="40" as="alternateBounds" />
          </mxGeometry>
        </mxCell>
        <mxCell id="QaOnGby33gd0xWd2W6pQ-73" value="portal" style="whiteSpace=wrap;html=1;aspect=fixed;fontSize=18;" vertex="1" parent="QaOnGby33gd0xWd2W6pQ-72">
          <mxGeometry x="350" y="60" width="80" height="80" as="geometry" />
        </mxCell>
        <mxCell id="QaOnGby33gd0xWd2W6pQ-146" style="edgeStyle=orthogonalEdgeStyle;rounded=0;orthogonalLoop=1;jettySize=auto;html=1;fontSize=18;" edge="1" parent="QaOnGby33gd0xWd2W6pQ-72" source="QaOnGby33gd0xWd2W6pQ-74" target="QaOnGby33gd0xWd2W6pQ-75">
          <mxGeometry relative="1" as="geometry" />
        </mxCell>
        <mxCell id="QaOnGby33gd0xWd2W6pQ-147" style="edgeStyle=orthogonalEdgeStyle;rounded=0;orthogonalLoop=1;jettySize=auto;html=1;exitX=1;exitY=0.5;exitDx=0;exitDy=0;entryX=0.625;entryY=0.988;entryDx=0;entryDy=0;entryPerimeter=0;fontSize=18;" edge="1" parent="QaOnGby33gd0xWd2W6pQ-72" source="QaOnGby33gd0xWd2W6pQ-74" target="QaOnGby33gd0xWd2W6pQ-73">
          <mxGeometry relative="1" as="geometry" />
        </mxCell>
        <mxCell id="QaOnGby33gd0xWd2W6pQ-74" value="AUTH" style="whiteSpace=wrap;html=1;aspect=fixed;fontSize=18;" vertex="1" parent="QaOnGby33gd0xWd2W6pQ-72">
          <mxGeometry x="270" y="170" width="80" height="80" as="geometry" />
        </mxCell>
        <mxCell id="QaOnGby33gd0xWd2W6pQ-148" style="edgeStyle=orthogonalEdgeStyle;rounded=0;orthogonalLoop=1;jettySize=auto;html=1;exitX=1;exitY=0.5;exitDx=0;exitDy=0;entryX=0;entryY=0.5;entryDx=0;entryDy=0;fontSize=18;" edge="1" parent="QaOnGby33gd0xWd2W6pQ-72" source="QaOnGby33gd0xWd2W6pQ-75" target="QaOnGby33gd0xWd2W6pQ-73">
          <mxGeometry relative="1" as="geometry" />
        </mxCell>
        <mxCell id="QaOnGby33gd0xWd2W6pQ-75" value="IAM" style="whiteSpace=wrap;html=1;aspect=fixed;fontSize=18;" vertex="1" parent="QaOnGby33gd0xWd2W6pQ-72">
          <mxGeometry x="180" y="60" width="80" height="80" as="geometry" />
        </mxCell>
        <mxCell id="QaOnGby33gd0xWd2W6pQ-149" value="" style="outlineConnect=0;dashed=0;verticalLabelPosition=bottom;verticalAlign=top;align=center;html=1;shape=mxgraph.aws3.classic_load_balancer;fillColor=#F58536;gradientColor=none;fontSize=18;" vertex="1" parent="QaOnGby33gd0xWd2W6pQ-72">
          <mxGeometry y="110" width="69" height="72" as="geometry" />
        </mxCell>
        <mxCell id="QaOnGby33gd0xWd2W6pQ-76" value="" style="endArrow=none;dashed=1;html=1;dashPattern=1 3;strokeWidth=2;rounded=0;fontSize=18;" edge="1" parent="1">
          <mxGeometry width="50" height="50" relative="1" as="geometry">
            <mxPoint x="320" y="640" as="sourcePoint" />
            <mxPoint x="320" y="290" as="targetPoint" />
          </mxGeometry>
        </mxCell>
        <mxCell id="QaOnGby33gd0xWd2W6pQ-78" value="Portal" style="shape=cylinder3;whiteSpace=wrap;html=1;boundedLbl=1;backgroundOutline=1;size=15;fontSize=18;" vertex="1" parent="1">
          <mxGeometry x="940" y="398.5" width="60" height="80" as="geometry" />
        </mxCell>
        <mxCell id="QaOnGby33gd0xWd2W6pQ-81" value="users" style="shape=table;startSize=30;container=1;collapsible=0;childLayout=tableLayout;fontStyle=1;align=center;pointerEvents=1;fontSize=18;" vertex="1" parent="1">
          <mxGeometry x="970" y="90" width="180" height="150" as="geometry" />
        </mxCell>
        <mxCell id="QaOnGby33gd0xWd2W6pQ-82" value="" style="shape=partialRectangle;html=1;whiteSpace=wrap;collapsible=0;dropTarget=0;pointerEvents=0;fillColor=none;top=0;left=0;bottom=0;right=0;points=[[0,0.5],[1,0.5]];portConstraint=eastwest;fontSize=18;" vertex="1" parent="QaOnGby33gd0xWd2W6pQ-81">
          <mxGeometry y="30" width="180" height="40" as="geometry" />
        </mxCell>
        <mxCell id="QaOnGby33gd0xWd2W6pQ-83" value="user_id" style="shape=partialRectangle;html=1;whiteSpace=wrap;connectable=0;fillColor=none;top=0;left=0;bottom=0;right=0;overflow=hidden;pointerEvents=1;fontSize=18;" vertex="1" parent="QaOnGby33gd0xWd2W6pQ-82">
          <mxGeometry width="60" height="40" as="geometry">
            <mxRectangle width="60" height="40" as="alternateBounds" />
          </mxGeometry>
        </mxCell>
        <mxCell id="QaOnGby33gd0xWd2W6pQ-84" value="org_id" style="shape=partialRectangle;html=1;whiteSpace=wrap;connectable=0;fillColor=none;top=0;left=0;bottom=0;right=0;overflow=hidden;pointerEvents=1;fontSize=18;" vertex="1" parent="QaOnGby33gd0xWd2W6pQ-82">
          <mxGeometry x="60" width="60" height="40" as="geometry">
            <mxRectangle width="60" height="40" as="alternateBounds" />
          </mxGeometry>
        </mxCell>
        <mxCell id="QaOnGby33gd0xWd2W6pQ-85" value="type" style="shape=partialRectangle;html=1;whiteSpace=wrap;connectable=0;fillColor=none;top=0;left=0;bottom=0;right=0;overflow=hidden;pointerEvents=1;fontSize=18;" vertex="1" parent="QaOnGby33gd0xWd2W6pQ-82">
          <mxGeometry x="120" width="60" height="40" as="geometry">
            <mxRectangle width="60" height="40" as="alternateBounds" />
          </mxGeometry>
        </mxCell>
        <mxCell id="QaOnGby33gd0xWd2W6pQ-86" value="" style="shape=partialRectangle;html=1;whiteSpace=wrap;collapsible=0;dropTarget=0;pointerEvents=0;fillColor=none;top=0;left=0;bottom=0;right=0;points=[[0,0.5],[1,0.5]];portConstraint=eastwest;fontSize=18;" vertex="1" parent="QaOnGby33gd0xWd2W6pQ-81">
          <mxGeometry y="70" width="180" height="40" as="geometry" />
        </mxCell>
        <mxCell id="QaOnGby33gd0xWd2W6pQ-87" value="" style="shape=partialRectangle;html=1;whiteSpace=wrap;connectable=0;fillColor=none;top=0;left=0;bottom=0;right=0;overflow=hidden;pointerEvents=1;fontSize=18;" vertex="1" parent="QaOnGby33gd0xWd2W6pQ-86">
          <mxGeometry width="60" height="40" as="geometry">
            <mxRectangle width="60" height="40" as="alternateBounds" />
          </mxGeometry>
        </mxCell>
        <mxCell id="QaOnGby33gd0xWd2W6pQ-88" value="" style="shape=partialRectangle;html=1;whiteSpace=wrap;connectable=0;fillColor=none;top=0;left=0;bottom=0;right=0;overflow=hidden;pointerEvents=1;fontSize=18;" vertex="1" parent="QaOnGby33gd0xWd2W6pQ-86">
          <mxGeometry x="60" width="60" height="40" as="geometry">
            <mxRectangle width="60" height="40" as="alternateBounds" />
          </mxGeometry>
        </mxCell>
        <mxCell id="QaOnGby33gd0xWd2W6pQ-89" value="" style="shape=partialRectangle;html=1;whiteSpace=wrap;connectable=0;fillColor=none;top=0;left=0;bottom=0;right=0;overflow=hidden;pointerEvents=1;fontSize=18;" vertex="1" parent="QaOnGby33gd0xWd2W6pQ-86">
          <mxGeometry x="120" width="60" height="40" as="geometry">
            <mxRectangle width="60" height="40" as="alternateBounds" />
          </mxGeometry>
        </mxCell>
        <mxCell id="QaOnGby33gd0xWd2W6pQ-90" value="" style="shape=partialRectangle;html=1;whiteSpace=wrap;collapsible=0;dropTarget=0;pointerEvents=0;fillColor=none;top=0;left=0;bottom=0;right=0;points=[[0,0.5],[1,0.5]];portConstraint=eastwest;fontSize=18;" vertex="1" parent="QaOnGby33gd0xWd2W6pQ-81">
          <mxGeometry y="110" width="180" height="40" as="geometry" />
        </mxCell>
        <mxCell id="QaOnGby33gd0xWd2W6pQ-91" value="" style="shape=partialRectangle;html=1;whiteSpace=wrap;connectable=0;fillColor=none;top=0;left=0;bottom=0;right=0;overflow=hidden;pointerEvents=1;fontSize=18;" vertex="1" parent="QaOnGby33gd0xWd2W6pQ-90">
          <mxGeometry width="60" height="40" as="geometry">
            <mxRectangle width="60" height="40" as="alternateBounds" />
          </mxGeometry>
        </mxCell>
        <mxCell id="QaOnGby33gd0xWd2W6pQ-92" value="" style="shape=partialRectangle;html=1;whiteSpace=wrap;connectable=0;fillColor=none;top=0;left=0;bottom=0;right=0;overflow=hidden;pointerEvents=1;fontSize=18;" vertex="1" parent="QaOnGby33gd0xWd2W6pQ-90">
          <mxGeometry x="60" width="60" height="40" as="geometry">
            <mxRectangle width="60" height="40" as="alternateBounds" />
          </mxGeometry>
        </mxCell>
        <mxCell id="QaOnGby33gd0xWd2W6pQ-93" value="" style="shape=partialRectangle;html=1;whiteSpace=wrap;connectable=0;fillColor=none;top=0;left=0;bottom=0;right=0;overflow=hidden;pointerEvents=1;fontSize=18;" vertex="1" parent="QaOnGby33gd0xWd2W6pQ-90">
          <mxGeometry x="120" width="60" height="40" as="geometry">
            <mxRectangle width="60" height="40" as="alternateBounds" />
          </mxGeometry>
        </mxCell>
        <mxCell id="QaOnGby33gd0xWd2W6pQ-94" value="users" style="text;html=1;align=center;verticalAlign=middle;resizable=0;points=[];autosize=1;strokeColor=none;fillColor=none;fontSize=18;" vertex="1" parent="1">
          <mxGeometry x="940" y="45" width="60" height="30" as="geometry" />
        </mxCell>
        <mxCell id="QaOnGby33gd0xWd2W6pQ-96" value="orgs" style="shape=table;startSize=30;container=1;collapsible=0;childLayout=tableLayout;fontStyle=1;align=center;pointerEvents=1;fontSize=18;" vertex="1" parent="1">
          <mxGeometry x="1200" y="250" width="220" height="154" as="geometry" />
        </mxCell>
        <mxCell id="QaOnGby33gd0xWd2W6pQ-97" value="" style="shape=partialRectangle;html=1;whiteSpace=wrap;collapsible=0;dropTarget=0;pointerEvents=0;fillColor=none;top=0;left=0;bottom=0;right=0;points=[[0,0.5],[1,0.5]];portConstraint=eastwest;fontSize=18;" vertex="1" parent="QaOnGby33gd0xWd2W6pQ-96">
          <mxGeometry y="30" width="220" height="50" as="geometry" />
        </mxCell>
        <mxCell id="QaOnGby33gd0xWd2W6pQ-98" value="org_id" style="shape=partialRectangle;html=1;whiteSpace=wrap;connectable=0;fillColor=none;top=0;left=0;bottom=0;right=0;overflow=hidden;pointerEvents=1;fontSize=18;" vertex="1" parent="QaOnGby33gd0xWd2W6pQ-97">
          <mxGeometry width="59" height="50" as="geometry">
            <mxRectangle width="59" height="50" as="alternateBounds" />
          </mxGeometry>
        </mxCell>
        <mxCell id="QaOnGby33gd0xWd2W6pQ-99" value="name" style="shape=partialRectangle;html=1;whiteSpace=wrap;connectable=0;fillColor=none;top=0;left=0;bottom=0;right=0;overflow=hidden;pointerEvents=1;fontSize=18;" vertex="1" parent="QaOnGby33gd0xWd2W6pQ-97">
          <mxGeometry x="59" width="61" height="50" as="geometry">
            <mxRectangle width="61" height="50" as="alternateBounds" />
          </mxGeometry>
        </mxCell>
        <mxCell id="QaOnGby33gd0xWd2W6pQ-100" value="" style="shape=partialRectangle;html=1;whiteSpace=wrap;connectable=0;fillColor=none;top=0;left=0;bottom=0;right=0;overflow=hidden;pointerEvents=1;fontSize=18;" vertex="1" parent="QaOnGby33gd0xWd2W6pQ-97">
          <mxGeometry x="120" width="100" height="50" as="geometry">
            <mxRectangle width="100" height="50" as="alternateBounds" />
          </mxGeometry>
        </mxCell>
        <mxCell id="QaOnGby33gd0xWd2W6pQ-101" value="" style="shape=partialRectangle;html=1;whiteSpace=wrap;collapsible=0;dropTarget=0;pointerEvents=0;fillColor=none;top=0;left=0;bottom=0;right=0;points=[[0,0.5],[1,0.5]];portConstraint=eastwest;fontSize=18;" vertex="1" parent="QaOnGby33gd0xWd2W6pQ-96">
          <mxGeometry y="80" width="220" height="37" as="geometry" />
        </mxCell>
        <mxCell id="QaOnGby33gd0xWd2W6pQ-102" value="" style="shape=partialRectangle;html=1;whiteSpace=wrap;connectable=0;fillColor=none;top=0;left=0;bottom=0;right=0;overflow=hidden;pointerEvents=1;fontSize=18;" vertex="1" parent="QaOnGby33gd0xWd2W6pQ-101">
          <mxGeometry width="59" height="37" as="geometry">
            <mxRectangle width="59" height="37" as="alternateBounds" />
          </mxGeometry>
        </mxCell>
        <mxCell id="QaOnGby33gd0xWd2W6pQ-103" value="" style="shape=partialRectangle;html=1;whiteSpace=wrap;connectable=0;fillColor=none;top=0;left=0;bottom=0;right=0;overflow=hidden;pointerEvents=1;fontSize=18;" vertex="1" parent="QaOnGby33gd0xWd2W6pQ-101">
          <mxGeometry x="59" width="61" height="37" as="geometry">
            <mxRectangle width="61" height="37" as="alternateBounds" />
          </mxGeometry>
        </mxCell>
        <mxCell id="QaOnGby33gd0xWd2W6pQ-104" value="" style="shape=partialRectangle;html=1;whiteSpace=wrap;connectable=0;fillColor=none;top=0;left=0;bottom=0;right=0;overflow=hidden;pointerEvents=1;fontSize=18;" vertex="1" parent="QaOnGby33gd0xWd2W6pQ-101">
          <mxGeometry x="120" width="100" height="37" as="geometry">
            <mxRectangle width="100" height="37" as="alternateBounds" />
          </mxGeometry>
        </mxCell>
        <mxCell id="QaOnGby33gd0xWd2W6pQ-105" value="" style="shape=partialRectangle;html=1;whiteSpace=wrap;collapsible=0;dropTarget=0;pointerEvents=0;fillColor=none;top=0;left=0;bottom=0;right=0;points=[[0,0.5],[1,0.5]];portConstraint=eastwest;fontSize=18;" vertex="1" parent="QaOnGby33gd0xWd2W6pQ-96">
          <mxGeometry y="117" width="220" height="37" as="geometry" />
        </mxCell>
        <mxCell id="QaOnGby33gd0xWd2W6pQ-106" value="" style="shape=partialRectangle;html=1;whiteSpace=wrap;connectable=0;fillColor=none;top=0;left=0;bottom=0;right=0;overflow=hidden;pointerEvents=1;fontSize=18;" vertex="1" parent="QaOnGby33gd0xWd2W6pQ-105">
          <mxGeometry width="59" height="37" as="geometry">
            <mxRectangle width="59" height="37" as="alternateBounds" />
          </mxGeometry>
        </mxCell>
        <mxCell id="QaOnGby33gd0xWd2W6pQ-107" value="" style="shape=partialRectangle;html=1;whiteSpace=wrap;connectable=0;fillColor=none;top=0;left=0;bottom=0;right=0;overflow=hidden;pointerEvents=1;fontSize=18;" vertex="1" parent="QaOnGby33gd0xWd2W6pQ-105">
          <mxGeometry x="59" width="61" height="37" as="geometry">
            <mxRectangle width="61" height="37" as="alternateBounds" />
          </mxGeometry>
        </mxCell>
        <mxCell id="QaOnGby33gd0xWd2W6pQ-108" value="" style="shape=partialRectangle;html=1;whiteSpace=wrap;connectable=0;fillColor=none;top=0;left=0;bottom=0;right=0;overflow=hidden;pointerEvents=1;fontSize=18;" vertex="1" parent="QaOnGby33gd0xWd2W6pQ-105">
          <mxGeometry x="120" width="100" height="37" as="geometry">
            <mxRectangle width="100" height="37" as="alternateBounds" />
          </mxGeometry>
        </mxCell>
        <mxCell id="QaOnGby33gd0xWd2W6pQ-109" value="PORTAL" style="text;html=1;align=center;verticalAlign=middle;resizable=0;points=[];autosize=1;strokeColor=none;fillColor=none;fontSize=18;" vertex="1" parent="1">
          <mxGeometry x="905" y="5" width="90" height="30" as="geometry" />
        </mxCell>
        <mxCell id="QaOnGby33gd0xWd2W6pQ-110" value="user_roles" style="shape=table;startSize=30;container=1;collapsible=0;childLayout=tableLayout;fontStyle=1;align=center;pointerEvents=1;fontSize=18;" vertex="1" parent="1">
          <mxGeometry x="1190" y="30" width="220" height="154" as="geometry" />
        </mxCell>
        <mxCell id="QaOnGby33gd0xWd2W6pQ-111" value="" style="shape=partialRectangle;html=1;whiteSpace=wrap;collapsible=0;dropTarget=0;pointerEvents=0;fillColor=none;top=0;left=0;bottom=0;right=0;points=[[0,0.5],[1,0.5]];portConstraint=eastwest;fontSize=18;" vertex="1" parent="QaOnGby33gd0xWd2W6pQ-110">
          <mxGeometry y="30" width="220" height="50" as="geometry" />
        </mxCell>
        <mxCell id="QaOnGby33gd0xWd2W6pQ-112" value="user_id" style="shape=partialRectangle;html=1;whiteSpace=wrap;connectable=0;fillColor=none;top=0;left=0;bottom=0;right=0;overflow=hidden;pointerEvents=1;fontSize=18;" vertex="1" parent="QaOnGby33gd0xWd2W6pQ-111">
          <mxGeometry width="59" height="50" as="geometry">
            <mxRectangle width="59" height="50" as="alternateBounds" />
          </mxGeometry>
        </mxCell>
        <mxCell id="QaOnGby33gd0xWd2W6pQ-113" value="role_id" style="shape=partialRectangle;html=1;whiteSpace=wrap;connectable=0;fillColor=none;top=0;left=0;bottom=0;right=0;overflow=hidden;pointerEvents=1;fontSize=18;" vertex="1" parent="QaOnGby33gd0xWd2W6pQ-111">
          <mxGeometry x="59" width="61" height="50" as="geometry">
            <mxRectangle width="61" height="50" as="alternateBounds" />
          </mxGeometry>
        </mxCell>
        <mxCell id="QaOnGby33gd0xWd2W6pQ-114" value="" style="shape=partialRectangle;html=1;whiteSpace=wrap;connectable=0;fillColor=none;top=0;left=0;bottom=0;right=0;overflow=hidden;pointerEvents=1;fontSize=18;" vertex="1" parent="QaOnGby33gd0xWd2W6pQ-111">
          <mxGeometry x="120" width="100" height="50" as="geometry">
            <mxRectangle width="100" height="50" as="alternateBounds" />
          </mxGeometry>
        </mxCell>
        <mxCell id="QaOnGby33gd0xWd2W6pQ-115" value="" style="shape=partialRectangle;html=1;whiteSpace=wrap;collapsible=0;dropTarget=0;pointerEvents=0;fillColor=none;top=0;left=0;bottom=0;right=0;points=[[0,0.5],[1,0.5]];portConstraint=eastwest;fontSize=18;" vertex="1" parent="QaOnGby33gd0xWd2W6pQ-110">
          <mxGeometry y="80" width="220" height="37" as="geometry" />
        </mxCell>
        <mxCell id="QaOnGby33gd0xWd2W6pQ-116" value="" style="shape=partialRectangle;html=1;whiteSpace=wrap;connectable=0;fillColor=none;top=0;left=0;bottom=0;right=0;overflow=hidden;pointerEvents=1;fontSize=18;" vertex="1" parent="QaOnGby33gd0xWd2W6pQ-115">
          <mxGeometry width="59" height="37" as="geometry">
            <mxRectangle width="59" height="37" as="alternateBounds" />
          </mxGeometry>
        </mxCell>
        <mxCell id="QaOnGby33gd0xWd2W6pQ-117" value="" style="shape=partialRectangle;html=1;whiteSpace=wrap;connectable=0;fillColor=none;top=0;left=0;bottom=0;right=0;overflow=hidden;pointerEvents=1;fontSize=18;" vertex="1" parent="QaOnGby33gd0xWd2W6pQ-115">
          <mxGeometry x="59" width="61" height="37" as="geometry">
            <mxRectangle width="61" height="37" as="alternateBounds" />
          </mxGeometry>
        </mxCell>
        <mxCell id="QaOnGby33gd0xWd2W6pQ-118" value="" style="shape=partialRectangle;html=1;whiteSpace=wrap;connectable=0;fillColor=none;top=0;left=0;bottom=0;right=0;overflow=hidden;pointerEvents=1;fontSize=18;" vertex="1" parent="QaOnGby33gd0xWd2W6pQ-115">
          <mxGeometry x="120" width="100" height="37" as="geometry">
            <mxRectangle width="100" height="37" as="alternateBounds" />
          </mxGeometry>
        </mxCell>
        <mxCell id="QaOnGby33gd0xWd2W6pQ-119" value="" style="shape=partialRectangle;html=1;whiteSpace=wrap;collapsible=0;dropTarget=0;pointerEvents=0;fillColor=none;top=0;left=0;bottom=0;right=0;points=[[0,0.5],[1,0.5]];portConstraint=eastwest;fontSize=18;" vertex="1" parent="QaOnGby33gd0xWd2W6pQ-110">
          <mxGeometry y="117" width="220" height="37" as="geometry" />
        </mxCell>
        <mxCell id="QaOnGby33gd0xWd2W6pQ-120" value="" style="shape=partialRectangle;html=1;whiteSpace=wrap;connectable=0;fillColor=none;top=0;left=0;bottom=0;right=0;overflow=hidden;pointerEvents=1;fontSize=18;" vertex="1" parent="QaOnGby33gd0xWd2W6pQ-119">
          <mxGeometry width="59" height="37" as="geometry">
            <mxRectangle width="59" height="37" as="alternateBounds" />
          </mxGeometry>
        </mxCell>
        <mxCell id="QaOnGby33gd0xWd2W6pQ-121" value="" style="shape=partialRectangle;html=1;whiteSpace=wrap;connectable=0;fillColor=none;top=0;left=0;bottom=0;right=0;overflow=hidden;pointerEvents=1;fontSize=18;" vertex="1" parent="QaOnGby33gd0xWd2W6pQ-119">
          <mxGeometry x="59" width="61" height="37" as="geometry">
            <mxRectangle width="61" height="37" as="alternateBounds" />
          </mxGeometry>
        </mxCell>
        <mxCell id="QaOnGby33gd0xWd2W6pQ-122" value="" style="shape=partialRectangle;html=1;whiteSpace=wrap;connectable=0;fillColor=none;top=0;left=0;bottom=0;right=0;overflow=hidden;pointerEvents=1;fontSize=18;" vertex="1" parent="QaOnGby33gd0xWd2W6pQ-119">
          <mxGeometry x="120" width="100" height="37" as="geometry">
            <mxRectangle width="100" height="37" as="alternateBounds" />
          </mxGeometry>
        </mxCell>
        <mxCell id="QaOnGby33gd0xWd2W6pQ-123" value="roles" style="shape=table;startSize=30;container=1;collapsible=0;childLayout=tableLayout;fontStyle=1;align=center;pointerEvents=1;fontSize=18;" vertex="1" parent="1">
          <mxGeometry x="1460" y="86" width="220" height="154" as="geometry" />
        </mxCell>
        <mxCell id="QaOnGby33gd0xWd2W6pQ-124" value="" style="shape=partialRectangle;html=1;whiteSpace=wrap;collapsible=0;dropTarget=0;pointerEvents=0;fillColor=none;top=0;left=0;bottom=0;right=0;points=[[0,0.5],[1,0.5]];portConstraint=eastwest;fontSize=18;" vertex="1" parent="QaOnGby33gd0xWd2W6pQ-123">
          <mxGeometry y="30" width="220" height="50" as="geometry" />
        </mxCell>
        <mxCell id="QaOnGby33gd0xWd2W6pQ-125" value="id" style="shape=partialRectangle;html=1;whiteSpace=wrap;connectable=0;fillColor=none;top=0;left=0;bottom=0;right=0;overflow=hidden;pointerEvents=1;fontSize=18;" vertex="1" parent="QaOnGby33gd0xWd2W6pQ-124">
          <mxGeometry width="59" height="50" as="geometry">
            <mxRectangle width="59" height="50" as="alternateBounds" />
          </mxGeometry>
        </mxCell>
        <mxCell id="QaOnGby33gd0xWd2W6pQ-126" value="name" style="shape=partialRectangle;html=1;whiteSpace=wrap;connectable=0;fillColor=none;top=0;left=0;bottom=0;right=0;overflow=hidden;pointerEvents=1;fontSize=18;" vertex="1" parent="QaOnGby33gd0xWd2W6pQ-124">
          <mxGeometry x="59" width="61" height="50" as="geometry">
            <mxRectangle width="61" height="50" as="alternateBounds" />
          </mxGeometry>
        </mxCell>
        <mxCell id="QaOnGby33gd0xWd2W6pQ-127" value="" style="shape=partialRectangle;html=1;whiteSpace=wrap;connectable=0;fillColor=none;top=0;left=0;bottom=0;right=0;overflow=hidden;pointerEvents=1;fontSize=18;" vertex="1" parent="QaOnGby33gd0xWd2W6pQ-124">
          <mxGeometry x="120" width="100" height="50" as="geometry">
            <mxRectangle width="100" height="50" as="alternateBounds" />
          </mxGeometry>
        </mxCell>
        <mxCell id="QaOnGby33gd0xWd2W6pQ-128" value="" style="shape=partialRectangle;html=1;whiteSpace=wrap;collapsible=0;dropTarget=0;pointerEvents=0;fillColor=none;top=0;left=0;bottom=0;right=0;points=[[0,0.5],[1,0.5]];portConstraint=eastwest;fontSize=18;" vertex="1" parent="QaOnGby33gd0xWd2W6pQ-123">
          <mxGeometry y="80" width="220" height="37" as="geometry" />
        </mxCell>
        <mxCell id="QaOnGby33gd0xWd2W6pQ-129" value="" style="shape=partialRectangle;html=1;whiteSpace=wrap;connectable=0;fillColor=none;top=0;left=0;bottom=0;right=0;overflow=hidden;pointerEvents=1;fontSize=18;" vertex="1" parent="QaOnGby33gd0xWd2W6pQ-128">
          <mxGeometry width="59" height="37" as="geometry">
            <mxRectangle width="59" height="37" as="alternateBounds" />
          </mxGeometry>
        </mxCell>
        <mxCell id="QaOnGby33gd0xWd2W6pQ-130" value="" style="shape=partialRectangle;html=1;whiteSpace=wrap;connectable=0;fillColor=none;top=0;left=0;bottom=0;right=0;overflow=hidden;pointerEvents=1;fontSize=18;" vertex="1" parent="QaOnGby33gd0xWd2W6pQ-128">
          <mxGeometry x="59" width="61" height="37" as="geometry">
            <mxRectangle width="61" height="37" as="alternateBounds" />
          </mxGeometry>
        </mxCell>
        <mxCell id="QaOnGby33gd0xWd2W6pQ-131" value="" style="shape=partialRectangle;html=1;whiteSpace=wrap;connectable=0;fillColor=none;top=0;left=0;bottom=0;right=0;overflow=hidden;pointerEvents=1;fontSize=18;" vertex="1" parent="QaOnGby33gd0xWd2W6pQ-128">
          <mxGeometry x="120" width="100" height="37" as="geometry">
            <mxRectangle width="100" height="37" as="alternateBounds" />
          </mxGeometry>
        </mxCell>
        <mxCell id="QaOnGby33gd0xWd2W6pQ-132" value="" style="shape=partialRectangle;html=1;whiteSpace=wrap;collapsible=0;dropTarget=0;pointerEvents=0;fillColor=none;top=0;left=0;bottom=0;right=0;points=[[0,0.5],[1,0.5]];portConstraint=eastwest;fontSize=18;" vertex="1" parent="QaOnGby33gd0xWd2W6pQ-123">
          <mxGeometry y="117" width="220" height="37" as="geometry" />
        </mxCell>
        <mxCell id="QaOnGby33gd0xWd2W6pQ-133" value="" style="shape=partialRectangle;html=1;whiteSpace=wrap;connectable=0;fillColor=none;top=0;left=0;bottom=0;right=0;overflow=hidden;pointerEvents=1;fontSize=18;" vertex="1" parent="QaOnGby33gd0xWd2W6pQ-132">
          <mxGeometry width="59" height="37" as="geometry">
            <mxRectangle width="59" height="37" as="alternateBounds" />
          </mxGeometry>
        </mxCell>
        <mxCell id="QaOnGby33gd0xWd2W6pQ-134" value="" style="shape=partialRectangle;html=1;whiteSpace=wrap;connectable=0;fillColor=none;top=0;left=0;bottom=0;right=0;overflow=hidden;pointerEvents=1;fontSize=18;" vertex="1" parent="QaOnGby33gd0xWd2W6pQ-132">
          <mxGeometry x="59" width="61" height="37" as="geometry">
            <mxRectangle width="61" height="37" as="alternateBounds" />
          </mxGeometry>
        </mxCell>
        <mxCell id="QaOnGby33gd0xWd2W6pQ-135" value="" style="shape=partialRectangle;html=1;whiteSpace=wrap;connectable=0;fillColor=none;top=0;left=0;bottom=0;right=0;overflow=hidden;pointerEvents=1;fontSize=18;" vertex="1" parent="QaOnGby33gd0xWd2W6pQ-132">
          <mxGeometry x="120" width="100" height="37" as="geometry">
            <mxRectangle width="100" height="37" as="alternateBounds" />
          </mxGeometry>
        </mxCell>
        <mxCell id="QaOnGby33gd0xWd2W6pQ-141" value="Users" style="strokeColor=#dddddd;shadow=1;strokeWidth=1;rounded=1;absoluteArcSize=1;arcSize=2;labelPosition=center;verticalLabelPosition=middle;align=center;verticalAlign=bottom;spacingLeft=0;fontColor=#999999;fontSize=12;whiteSpace=wrap;spacingBottom=2;" vertex="1" parent="1">
          <mxGeometry x="90" y="341" width="170" height="195" as="geometry" />
        </mxCell>
        <mxCell id="QaOnGby33gd0xWd2W6pQ-142" value="" style="sketch=0;dashed=0;connectable=0;html=1;fillColor=#757575;strokeColor=none;shape=mxgraph.gcp2.users;part=1;fontSize=18;" vertex="1" parent="QaOnGby33gd0xWd2W6pQ-141">
          <mxGeometry x="0.5" width="50" height="31.5" relative="1" as="geometry">
            <mxPoint x="-25" y="19.25" as="offset" />
          </mxGeometry>
        </mxCell>
        <mxCell id="QaOnGby33gd0xWd2W6pQ-69" value="" style="sketch=0;outlineConnect=0;fontColor=#232F3E;gradientColor=none;fillColor=#232F3D;strokeColor=none;dashed=0;verticalLabelPosition=bottom;verticalAlign=top;align=center;html=1;fontSize=12;fontStyle=0;aspect=fixed;pointerEvents=1;shape=mxgraph.aws4.users;" vertex="1" parent="QaOnGby33gd0xWd2W6pQ-141">
          <mxGeometry x="42" y="9" width="78" height="78" as="geometry" />
        </mxCell>
        <mxCell id="QaOnGby33gd0xWd2W6pQ-70" value="" style="sketch=0;pointerEvents=1;shadow=0;dashed=0;html=1;strokeColor=none;fillColor=#505050;labelPosition=center;verticalLabelPosition=bottom;verticalAlign=top;outlineConnect=0;align=center;shape=mxgraph.office.users.administrator;fontSize=18;" vertex="1" parent="QaOnGby33gd0xWd2W6pQ-141">
          <mxGeometry x="52" y="109" width="58" height="56" as="geometry" />
        </mxCell>
        <mxCell id="QaOnGby33gd0xWd2W6pQ-143" value="FRONTEND" style="text;html=1;align=center;verticalAlign=middle;resizable=0;points=[];autosize=1;strokeColor=none;fillColor=none;fontSize=18;" vertex="1" parent="1">
          <mxGeometry x="130" y="270" width="120" height="30" as="geometry" />
        </mxCell>
      </root>
    </mxGraphModel>
  </diagram>
</mxfile>
